<mxfile host="app.diagrams.net" modified="2024-03-31T00:26:36.364Z" agent="Mozilla/5.0 (Windows NT 10.0; Win64; x64; rv:124.0) Gecko/20100101 Firefox/124.0" etag="mpZuo_MhMYUPm76B31oR" version="24.2.1" type="github">
  <diagram name="Page-1" id="H5eovry3Fv5cOYSX61gb">
    <mxGraphModel dx="880" dy="470" grid="1" gridSize="10" guides="1" tooltips="1" connect="1" arrows="1" fold="1" page="1" pageScale="1" pageWidth="827" pageHeight="1169" math="0" shadow="0">
      <root>
        <mxCell id="0" />
        <mxCell id="1" parent="0" />
        <mxCell id="kKg6sU__fX5SuIfDFp-q-3" value="" style="edgeStyle=orthogonalEdgeStyle;rounded=0;orthogonalLoop=1;jettySize=auto;html=1;" edge="1" parent="1">
          <mxGeometry relative="1" as="geometry">
            <mxPoint x="110" y="100" as="sourcePoint" />
            <mxPoint x="110" y="130" as="targetPoint" />
          </mxGeometry>
        </mxCell>
        <mxCell id="kKg6sU__fX5SuIfDFp-q-5" value="Start" style="ellipse;whiteSpace=wrap;html=1;fillColor=#fad9d5;strokeColor=#ae4132;" vertex="1" parent="1">
          <mxGeometry x="50" y="50" width="120" height="50" as="geometry" />
        </mxCell>
        <mxCell id="kKg6sU__fX5SuIfDFp-q-8" value="" style="edgeStyle=orthogonalEdgeStyle;rounded=0;orthogonalLoop=1;jettySize=auto;html=1;" edge="1" parent="1" source="kKg6sU__fX5SuIfDFp-q-6" target="kKg6sU__fX5SuIfDFp-q-7">
          <mxGeometry relative="1" as="geometry" />
        </mxCell>
        <mxCell id="kKg6sU__fX5SuIfDFp-q-6" value="A = 20" style="shape=parallelogram;perimeter=parallelogramPerimeter;whiteSpace=wrap;html=1;fixedSize=1;fillColor=#fad9d5;strokeColor=#ae4132;" vertex="1" parent="1">
          <mxGeometry x="55" y="130" width="110" height="30" as="geometry" />
        </mxCell>
        <mxCell id="kKg6sU__fX5SuIfDFp-q-10" value="" style="edgeStyle=orthogonalEdgeStyle;rounded=0;orthogonalLoop=1;jettySize=auto;html=1;" edge="1" parent="1" source="kKg6sU__fX5SuIfDFp-q-7" target="kKg6sU__fX5SuIfDFp-q-9">
          <mxGeometry relative="1" as="geometry" />
        </mxCell>
        <mxCell id="kKg6sU__fX5SuIfDFp-q-7" value="B = 60" style="shape=parallelogram;perimeter=parallelogramPerimeter;whiteSpace=wrap;html=1;fixedSize=1;fillColor=#fad9d5;strokeColor=#ae4132;rotation=0;" vertex="1" parent="1">
          <mxGeometry x="55" y="190" width="110" height="30" as="geometry" />
        </mxCell>
        <mxCell id="kKg6sU__fX5SuIfDFp-q-12" value="" style="edgeStyle=orthogonalEdgeStyle;rounded=0;orthogonalLoop=1;jettySize=auto;html=1;" edge="1" parent="1" source="kKg6sU__fX5SuIfDFp-q-9" target="kKg6sU__fX5SuIfDFp-q-11">
          <mxGeometry relative="1" as="geometry" />
        </mxCell>
        <mxCell id="kKg6sU__fX5SuIfDFp-q-9" value="C = 40" style="shape=parallelogram;perimeter=parallelogramPerimeter;whiteSpace=wrap;html=1;fixedSize=1;fillColor=#fad9d5;strokeColor=#ae4132;rotation=0;" vertex="1" parent="1">
          <mxGeometry x="55" y="250" width="110" height="30" as="geometry" />
        </mxCell>
        <mxCell id="kKg6sU__fX5SuIfDFp-q-14" value="" style="edgeStyle=orthogonalEdgeStyle;rounded=0;orthogonalLoop=1;jettySize=auto;html=1;" edge="1" parent="1" source="kKg6sU__fX5SuIfDFp-q-11" target="kKg6sU__fX5SuIfDFp-q-13">
          <mxGeometry relative="1" as="geometry" />
        </mxCell>
        <mxCell id="kKg6sU__fX5SuIfDFp-q-11" value="D = 100" style="shape=parallelogram;perimeter=parallelogramPerimeter;whiteSpace=wrap;html=1;fixedSize=1;fillColor=#fad9d5;strokeColor=#ae4132;rotation=0;" vertex="1" parent="1">
          <mxGeometry x="55" y="310" width="110" height="30" as="geometry" />
        </mxCell>
        <mxCell id="kKg6sU__fX5SuIfDFp-q-16" value="" style="edgeStyle=orthogonalEdgeStyle;rounded=0;orthogonalLoop=1;jettySize=auto;html=1;" edge="1" parent="1" source="kKg6sU__fX5SuIfDFp-q-13" target="kKg6sU__fX5SuIfDFp-q-15">
          <mxGeometry relative="1" as="geometry" />
        </mxCell>
        <mxCell id="kKg6sU__fX5SuIfDFp-q-28" value="" style="edgeStyle=orthogonalEdgeStyle;rounded=0;orthogonalLoop=1;jettySize=auto;html=1;" edge="1" parent="1" source="kKg6sU__fX5SuIfDFp-q-13" target="kKg6sU__fX5SuIfDFp-q-27">
          <mxGeometry relative="1" as="geometry" />
        </mxCell>
        <mxCell id="kKg6sU__fX5SuIfDFp-q-13" value="&lt;div&gt;20&amp;gt;60, 20&amp;gt;40,&lt;/div&gt;&lt;div&gt;20&amp;gt;100&lt;br&gt;&lt;/div&gt;" style="rhombus;whiteSpace=wrap;html=1;fillColor=#fad9d5;strokeColor=#ae4132;" vertex="1" parent="1">
          <mxGeometry x="50" y="370" width="120" height="80" as="geometry" />
        </mxCell>
        <mxCell id="kKg6sU__fX5SuIfDFp-q-18" value="" style="edgeStyle=orthogonalEdgeStyle;rounded=0;orthogonalLoop=1;jettySize=auto;html=1;" edge="1" parent="1" source="kKg6sU__fX5SuIfDFp-q-15" target="kKg6sU__fX5SuIfDFp-q-17">
          <mxGeometry relative="1" as="geometry" />
        </mxCell>
        <mxCell id="kKg6sU__fX5SuIfDFp-q-26" value="" style="edgeStyle=orthogonalEdgeStyle;rounded=0;orthogonalLoop=1;jettySize=auto;html=1;" edge="1" parent="1" source="kKg6sU__fX5SuIfDFp-q-15" target="kKg6sU__fX5SuIfDFp-q-25">
          <mxGeometry relative="1" as="geometry" />
        </mxCell>
        <mxCell id="kKg6sU__fX5SuIfDFp-q-15" value="60&amp;gt;20, 60&amp;gt;40, 60&amp;gt;100" style="rhombus;whiteSpace=wrap;html=1;fillColor=#fad9d5;strokeColor=#ae4132;align=center;verticalAlign=middle;fontFamily=Helvetica;fontSize=12;fontColor=default;rotation=0;" vertex="1" parent="1">
          <mxGeometry x="200" y="370" width="120" height="80" as="geometry" />
        </mxCell>
        <mxCell id="kKg6sU__fX5SuIfDFp-q-22" value="" style="edgeStyle=orthogonalEdgeStyle;rounded=0;orthogonalLoop=1;jettySize=auto;html=1;" edge="1" parent="1" source="kKg6sU__fX5SuIfDFp-q-17" target="kKg6sU__fX5SuIfDFp-q-21">
          <mxGeometry relative="1" as="geometry" />
        </mxCell>
        <mxCell id="kKg6sU__fX5SuIfDFp-q-24" value="" style="edgeStyle=orthogonalEdgeStyle;rounded=0;orthogonalLoop=1;jettySize=auto;html=1;" edge="1" parent="1" source="kKg6sU__fX5SuIfDFp-q-17" target="kKg6sU__fX5SuIfDFp-q-23">
          <mxGeometry relative="1" as="geometry" />
        </mxCell>
        <mxCell id="kKg6sU__fX5SuIfDFp-q-17" value="40&amp;gt;20, 40&amp;gt;60, 40&amp;gt;100" style="rhombus;whiteSpace=wrap;html=1;fillColor=#fad9d5;strokeColor=#ae4132;rotation=0;" vertex="1" parent="1">
          <mxGeometry x="350" y="370" width="120" height="80" as="geometry" />
        </mxCell>
        <mxCell id="kKg6sU__fX5SuIfDFp-q-34" value="" style="edgeStyle=orthogonalEdgeStyle;rounded=0;orthogonalLoop=1;jettySize=auto;html=1;" edge="1" parent="1" target="kKg6sU__fX5SuIfDFp-q-30">
          <mxGeometry relative="1" as="geometry">
            <mxPoint x="586.62" y="420" as="sourcePoint" />
            <mxPoint x="180" y="650" as="targetPoint" />
            <Array as="points">
              <mxPoint x="550" y="420" />
              <mxPoint x="550" y="650" />
            </Array>
          </mxGeometry>
        </mxCell>
        <mxCell id="kKg6sU__fX5SuIfDFp-q-21" value="100" style="shape=parallelogram;perimeter=parallelogramPerimeter;whiteSpace=wrap;html=1;fixedSize=1;fillColor=#fad9d5;strokeColor=#ae4132;" vertex="1" parent="1">
          <mxGeometry x="490" y="380" width="120" height="60" as="geometry" />
        </mxCell>
        <mxCell id="kKg6sU__fX5SuIfDFp-q-23" value="40" style="shape=parallelogram;perimeter=parallelogramPerimeter;whiteSpace=wrap;html=1;fixedSize=1;fillColor=#fad9d5;strokeColor=#ae4132;" vertex="1" parent="1">
          <mxGeometry x="350" y="480" width="120" height="60" as="geometry" />
        </mxCell>
        <mxCell id="kKg6sU__fX5SuIfDFp-q-25" value="60" style="shape=parallelogram;perimeter=parallelogramPerimeter;whiteSpace=wrap;html=1;fixedSize=1;fillColor=#fad9d5;strokeColor=#ae4132;" vertex="1" parent="1">
          <mxGeometry x="200" y="480" width="120" height="60" as="geometry" />
        </mxCell>
        <mxCell id="kKg6sU__fX5SuIfDFp-q-31" value="" style="edgeStyle=orthogonalEdgeStyle;rounded=0;orthogonalLoop=1;jettySize=auto;html=1;" edge="1" parent="1" source="kKg6sU__fX5SuIfDFp-q-27" target="kKg6sU__fX5SuIfDFp-q-30">
          <mxGeometry relative="1" as="geometry" />
        </mxCell>
        <mxCell id="kKg6sU__fX5SuIfDFp-q-27" value="20&lt;span style=&quot;white-space: pre;&quot;&gt;&#x9;&lt;/span&gt;" style="shape=parallelogram;perimeter=parallelogramPerimeter;whiteSpace=wrap;html=1;fixedSize=1;fillColor=#fad9d5;strokeColor=#ae4132;" vertex="1" parent="1">
          <mxGeometry x="50" y="480" width="120" height="60" as="geometry" />
        </mxCell>
        <mxCell id="kKg6sU__fX5SuIfDFp-q-30" value="End" style="ellipse;whiteSpace=wrap;html=1;fillColor=#fad9d5;strokeColor=#ae4132;" vertex="1" parent="1">
          <mxGeometry x="50" y="620" width="120" height="60" as="geometry" />
        </mxCell>
        <mxCell id="kKg6sU__fX5SuIfDFp-q-37" value="&lt;font style=&quot;font-size: 11px;&quot;&gt;Tidak&lt;/font&gt;" style="text;strokeColor=none;align=center;fillColor=none;html=1;verticalAlign=middle;whiteSpace=wrap;rounded=0;fontSize=11;" vertex="1" parent="1">
          <mxGeometry x="150" y="380" width="60" height="30" as="geometry" />
        </mxCell>
        <mxCell id="kKg6sU__fX5SuIfDFp-q-38" value="&lt;font style=&quot;font-size: 11px;&quot;&gt;Tidak&lt;/font&gt;" style="text;strokeColor=none;align=center;fillColor=none;html=1;verticalAlign=middle;whiteSpace=wrap;rounded=0;fontSize=11;" vertex="1" parent="1">
          <mxGeometry x="300" y="380" width="60" height="30" as="geometry" />
        </mxCell>
        <mxCell id="kKg6sU__fX5SuIfDFp-q-41" value="&lt;font style=&quot;font-size: 11px;&quot;&gt;Tidak&lt;/font&gt;" style="text;strokeColor=none;align=center;fillColor=none;html=1;verticalAlign=middle;whiteSpace=wrap;rounded=0;fontSize=11;" vertex="1" parent="1">
          <mxGeometry x="450" y="380" width="60" height="30" as="geometry" />
        </mxCell>
        <mxCell id="kKg6sU__fX5SuIfDFp-q-42" value="Ya" style="text;strokeColor=none;align=center;fillColor=none;html=1;verticalAlign=middle;whiteSpace=wrap;rounded=0;" vertex="1" parent="1">
          <mxGeometry x="90" y="450" width="60" height="30" as="geometry" />
        </mxCell>
        <mxCell id="kKg6sU__fX5SuIfDFp-q-43" value="Ya" style="text;strokeColor=none;align=center;fillColor=none;html=1;verticalAlign=middle;whiteSpace=wrap;rounded=0;" vertex="1" parent="1">
          <mxGeometry x="240" y="450" width="60" height="30" as="geometry" />
        </mxCell>
        <mxCell id="kKg6sU__fX5SuIfDFp-q-44" value="Ya" style="text;strokeColor=none;align=center;fillColor=none;html=1;verticalAlign=middle;whiteSpace=wrap;rounded=0;" vertex="1" parent="1">
          <mxGeometry x="390" y="450" width="60" height="30" as="geometry" />
        </mxCell>
        <mxCell id="kKg6sU__fX5SuIfDFp-q-45" value="" style="edgeStyle=orthogonalEdgeStyle;rounded=0;orthogonalLoop=1;jettySize=auto;html=1;exitX=0.5;exitY=1;exitDx=0;exitDy=0;" edge="1" parent="1" source="kKg6sU__fX5SuIfDFp-q-25">
          <mxGeometry relative="1" as="geometry">
            <mxPoint x="260" y="550" as="sourcePoint" />
            <mxPoint x="250" y="650" as="targetPoint" />
            <Array as="points">
              <mxPoint x="260" y="650" />
            </Array>
          </mxGeometry>
        </mxCell>
        <mxCell id="kKg6sU__fX5SuIfDFp-q-47" value="" style="edgeStyle=orthogonalEdgeStyle;rounded=0;orthogonalLoop=1;jettySize=auto;html=1;exitX=0.5;exitY=1;exitDx=0;exitDy=0;" edge="1" parent="1">
          <mxGeometry relative="1" as="geometry">
            <mxPoint x="410" y="540" as="sourcePoint" />
            <mxPoint x="400" y="650" as="targetPoint" />
            <Array as="points">
              <mxPoint x="410" y="650" />
            </Array>
          </mxGeometry>
        </mxCell>
      </root>
    </mxGraphModel>
  </diagram>
</mxfile>
